HIERARCHY
ROOT Hips
{
 OFFSET 0.000000 0.000000 0.000000
 CHANNELS 6 Xposition Yposition Zposition Yrotation Xrotation Zrotation
 JOINT Chest
 {
  OFFSET 0.000000 9.588913 -0.003946
  CHANNELS 3 Yrotation Xrotation Zrotation
  JOINT Chest2
  {
   OFFSET 0.000000 9.541882 0.008053
   CHANNELS 3 Yrotation Xrotation Zrotation
   JOINT Chest3
   {
    OFFSET 0.000000 9.501360 0.000000
    CHANNELS 3 Yrotation Xrotation Zrotation
    JOINT Chest4
    {
     OFFSET 0.000000 9.491660 0.000000
     CHANNELS 3 Yrotation Xrotation Zrotation
     JOINT Neck
     {
      OFFSET 0.000000 14.331917 0.000000
      CHANNELS 3 Yrotation Xrotation Zrotation
      JOINT Head
      {
       OFFSET 0.000000 8.884799 0.017034
       CHANNELS 3 Yrotation Xrotation Zrotation
       End Site
       {
        OFFSET 0.000000 16.896195 0.008993
       }
      }
     }
     JOINT RightCollar
     {
      OFFSET -2.923010 9.499495 0.000000
      CHANNELS 3 Yrotation Xrotation Zrotation
      JOINT RightShoulder
      {
       OFFSET -13.795216 0.000000 0.000000
       CHANNELS 3 Yrotation Xrotation Zrotation
       JOINT RightElbow
       {
        OFFSET -30.272209 0.000000 0.000000
        CHANNELS 3 Yrotation Xrotation Zrotation
        JOINT RightWrist
        {
         OFFSET -24.478199 0.000000 0.000000
         CHANNELS 3 Yrotation Xrotation Zrotation
         End Site
         {
          OFFSET -18.090752 0.000000 0.000000
         }
        }
       }
      }
     }
     JOINT LeftCollar
     {
      OFFSET 2.923010 9.499495 0.000000
      CHANNELS 3 Yrotation Xrotation Zrotation
      JOINT LeftShoulder
      {
       OFFSET 13.795216 0.000000 0.000000
       CHANNELS 3 Yrotation Xrotation Zrotation
       JOINT LeftElbow
       {
        OFFSET 30.272209 0.000000 0.000000
        CHANNELS 3 Yrotation Xrotation Zrotation
        JOINT LeftWrist
        {
         OFFSET 24.478199 0.000000 0.000000
         CHANNELS 3 Yrotation Xrotation Zrotation
         End Site
         {
          OFFSET 18.090752 0.000000 0.000000
         }
        }
       }
      }
     }
    }
   }
  }
 }
 JOINT RightHip
 {
  OFFSET -7.826875 0.019532 0.001973
  CHANNELS 3 Yrotation Xrotation Zrotation
  JOINT RightKnee
  {
   OFFSET 0.000000 -40.546152 -0.001885
   CHANNELS 3 Yrotation Xrotation Zrotation
   JOINT RightAnkle
   {
    OFFSET 0.000000 -39.417092 -0.003189
    CHANNELS 3 Yrotation Xrotation Zrotation
    JOINT RightToe
    {
     OFFSET 0.000000 -7.579396 17.243563
     CHANNELS 3 Yrotation Xrotation Zrotation
     End Site
     {
      OFFSET 0.000000 -1.500329 6.694466
     }
    }
   }
  }
 }
 JOINT LeftHip
 {
  OFFSET 7.826875 0.019532 0.001973
  CHANNELS 3 Yrotation Xrotation Zrotation
  JOINT LeftKnee
  {
   OFFSET 0.000000 -40.546152 -0.001885
   CHANNELS 3 Yrotation Xrotation Zrotation
   JOINT LeftAnkle
   {
    OFFSET 0.000000 -39.417092 -0.003189
    CHANNELS 3 Yrotation Xrotation Zrotation
    JOINT LeftToe
    {
     OFFSET 0.000000 -7.579396 17.243563
     CHANNELS 3 Yrotation Xrotation Zrotation
     End Site
     {
      OFFSET 0.000000 -1.500329 6.694466
     }
    }
   }
  }
 }
}
MOTION
Frames: 7
Frame Time: 0.008333
-27.718684 87.340085 3.032899 -137.370315 -8.134157 0.387606 3.145657 3.002529 0.502146 1.735619 1.715648 0.493993 2.172074 2.142155 0.625669 1.735619 1.715648 0.493993 -12.241810 23.434582 2.029691 -14.336952 0.532967 5.130116 3.592319 0.180794 2.716606 -25.116545 -15.961747 71.652375 12.610728 -53.799214 81.021741 4.091986 -18.536443 16.746055 -3.343524 0.970559 -0.048372 13.587690 2.020793 -78.408201 -5.625737 -23.905409 -27.879928 4.979521 -11.399499 -15.287388 -9.978765 14.788837 -14.760486 -2.727260 -0.056746 -0.543034 -5.787513 -5.103287 10.625948 0.093806 -0.577813 0.034101 9.773521 12.353406 10.652266 11.459635 -1.539875 0.107107 1.624822 -2.363485 -9.512029 0.122832 0.638574 0.051283
-27.720684 87.339028 3.025853 -137.367638 -8.123527 0.391499 3.144768 2.996189 0.501717 1.735751 1.712133 0.493172 2.172229 2.137765 0.624626 1.735751 1.712133 0.493172 -12.057947 23.419299 2.040741 -14.115833 0.487452 5.097227 3.584639 0.179716 2.720976 -25.119382 -15.951150 71.651496 12.599725 -53.800715 81.033872 4.089571 -18.538425 16.748754 -3.353689 0.971297 -0.053780 13.735514 1.949012 -78.368950 -5.582335 -24.351041 -28.159243 4.880619 -11.540523 -15.272340 -9.982524 14.787148 -14.762297 -2.725037 -0.065240 -0.541654 -5.796631 -5.103930 10.626395 0.092584 -0.575555 0.034109 9.770833 12.348351 10.647580 11.456808 -1.543612 0.110848 1.626441 -2.360656 -9.516759 0.122342 0.637380 0.050997
-27.723163 87.338029 3.018928 -137.367808 -8.114939 0.396786 3.145913 2.990192 0.501070 1.736437 1.709160 0.492329 2.173078 2.134052 0.623561 1.736437 1.709160 0.492329 -11.874717 23.402500 2.051069 -13.895814 0.440454 5.063664 3.576030 0.180376 2.725785 -25.113422 -15.940927 71.650274 12.600145 -53.810882 81.034982 4.093033 -18.541372 16.752232 -3.363054 0.973465 -0.056882 13.888598 1.874859 -78.330300 -5.544124 -24.790057 -28.447736 4.793047 -11.676201 -15.264124 -9.987114 14.786026 -14.771267 -2.723051 -0.072379 -0.540373 -5.779147 -5.106042 10.629477 0.094831 -0.577419 0.034522 9.772520 12.344213 10.643538 11.452605 -1.544297 0.113421 1.626131 -2.358913 -9.522297 0.121859 0.635065 0.051706
-27.725851 87.337076 3.011989 -137.372922 -8.107696 0.402091 3.149346 2.984535 0.500877 1.738216 1.706158 0.491906 2.175295 2.130300 0.623025 1.738216 1.706158 0.491906 -11.692477 23.384441 2.059837 -13.677096 0.392278 5.028562 3.567959 0.182392 2.730581 -25.099366 -15.928778 71.649204 12.615964 -53.830188 81.021186 4.098819 -18.544309 16.754344 -3.370553 0.976037 -0.060495 14.048062 1.800668 -78.287870 -5.512954 -25.216034 -28.744275 4.717078 -11.824086 -15.268075 -9.988603 14.785210 -14.780978 -2.724106 -0.078967 -0.537619 -5.756223 -5.108289 10.632228 0.097319 -0.579398 0.034665 9.783143 12.341039 10.639819 11.447851 -1.545386 0.118236 1.623436 -2.356644 -9.528848 0.121639 0.632477 0.052236
-27.728852 87.336187 3.004980 -137.378379 -8.102387 0.406939 3.153489 2.980057 0.501495 1.740729 1.703212 0.491784 2.178432 2.126614 0.622871 1.740729 1.703212 0.491784 -11.511728 23.364412 2.067849 -13.460477 0.342189 4.992966 3.556253 0.182523 2.734840 -25.089490 -15.915755 71.648191 12.635614 -53.845186 81.006881 4.094817 -18.544439 16.758917 -3.382729 0.975493 -0.065755 14.219987 1.730579 -78.239631 -5.487861 -25.625689 -29.054330 4.650361 -11.982036 -15.287182 -9.990481 14.785404 -14.785857 -2.725016 -0.084726 -0.534071 -5.757355 -5.109934 10.632449 0.096205 -0.577090 0.034085 9.793442 12.340366 10.635941 11.447528 -1.547440 0.123524 1.617881 -2.353631 -9.533465 0.121911 0.630073 0.051255
-27.732440 87.335376 2.998081 -137.382342 -8.099235 0.412866 3.157856 2.976334 0.502693 1.743506 1.700645 0.491639 2.181898 2.123402 0.622689 1.743506 1.700645 0.491639 -11.332373 23.342492 2.075489 -13.245930 0.290301 4.957292 3.538874 0.179179 2.737333 -25.089681 -15.902634 71.648300 12.645371 -53.847076 81.006777 4.083158 -18.541138 16.768597 -3.402994 0.971933 -0.071607 14.406553 1.664543 -78.187159 -5.461952 -26.022038 -29.383215 4.590019 -12.140201 -15.321919 -9.993958 14.787748 -14.791587 -2.724209 -0.090419 -0.530146 -5.766685 -5.111320 10.631302 0.094166 -0.573609 0.034120 9.798146 12.342553 10.632139 11.451876 -1.548133 0.123842 1.612034 -2.350870 -9.533438 0.121680 0.627457 0.049242
-27.736332 87.334620 2.991348 -137.386852 -8.096650 0.419033 3.162103 2.972065 0.503573 1.746031 1.698353 0.491374 2.185050 2.120535 0.622359 1.746031 1.698353 0.491374 -11.154701 23.319404 2.083395 -13.033973 0.237583 4.922327 3.520064 0.173263 2.740406 -25.096680 -15.890372 71.651438 12.640633 -53.839607 81.022122 4.075526 -18.539172 16.780223 -3.423166 0.966354 -0.073971 14.598417 1.598951 -78.133348 -5.428702 -26.416815 -29.730288 4.533636 -12.299484 -15.370168 -9.997274 14.790875 -14.801388 -2.720940 -0.096249 -0.526092 -5.761980 -5.112678 10.630388 0.094667 -0.573157 0.035647 9.800203 12.346401 10.628560 11.456468 -1.549057 0.121178 1.610248 -2.347841 -9.531741 0.120533 0.624766 0.047777
